<svg id="visual" viewBox="0 0 900 600" width="900" height="600" xmlns="http://www.w3.org/2000/svg" xmlns:xlink="http://www.w3.org/1999/xlink" version="1.1"><path d="M0 139L13.7 142C27.3 145 54.7 151 82 143C109.3 135 136.7 113 163.8 114C191 115 218 139 245.2 145C272.3 151 299.7 139 327 133C354.3 127 381.7 127 409 124C436.3 121 463.7 115 491 113C518.3 111 545.7 113 573 117C600.3 121 627.7 127 654.8 126C682 125 709 117 736.2 120C763.3 123 790.7 137 818 131C845.3 125 872.7 99 886.3 86L900 73L900 0L886.3 0C872.7 0 845.3 0 818 0C790.7 0 763.3 0 736.2 0C709 0 682 0 654.8 0C627.7 0 600.3 0 573 0C545.7 0 518.3 0 491 0C463.7 0 436.3 0 409 0C381.7 0 354.3 0 327 0C299.7 0 272.3 0 245.2 0C218 0 191 0 163.8 0C136.7 0 109.3 0 82 0C54.7 0 27.3 0 13.7 0L0 0Z" fill="#f16c71"></path><path d="M0 217L13.7 220C27.3 223 54.7 229 82 217C109.3 205 136.7 175 163.8 171C191 167 218 189 245.2 204C272.3 219 299.7 227 327 231C354.3 235 381.7 235 409 230C436.3 225 463.7 215 491 209C518.3 203 545.7 201 573 211C600.3 221 627.7 243 654.8 243C682 243 709 221 736.2 212C763.3 203 790.7 207 818 194C845.3 181 872.7 151 886.3 136L900 121L900 71L886.3 84C872.7 97 845.3 123 818 129C790.7 135 763.3 121 736.2 118C709 115 682 123 654.8 124C627.7 125 600.3 119 573 115C545.7 111 518.3 109 491 111C463.7 113 436.3 119 409 122C381.7 125 354.3 125 327 131C299.7 137 272.3 149 245.2 143C218 137 191 113 163.8 112C136.7 111 109.3 133 82 141C54.7 149 27.3 143 13.7 140L0 137Z" fill="#e74a51"></path><path d="M0 421L13.7 410C27.3 399 54.7 377 82 364C109.3 351 136.7 347 163.8 359C191 371 218 399 245.2 395C272.3 391 299.7 355 327 351C354.3 347 381.7 375 409 372C436.3 369 463.7 335 491 326C518.3 317 545.7 333 573 341C600.3 349 627.7 349 654.8 348C682 347 709 345 736.2 338C763.3 331 790.7 319 818 323C845.3 327 872.7 347 886.3 357L900 367L900 119L886.3 134C872.7 149 845.3 179 818 192C790.7 205 763.3 201 736.2 210C709 219 682 241 654.8 241C627.7 241 600.3 219 573 209C545.7 199 518.3 201 491 207C463.7 213 436.3 223 409 228C381.7 233 354.3 233 327 229C299.7 225 272.3 217 245.2 202C218 187 191 165 163.8 169C136.7 173 109.3 203 82 215C54.7 227 27.3 221 13.7 218L0 215Z" fill="#db1d30"></path><path d="M0 565L13.7 563C27.3 561 54.7 557 82 556C109.3 555 136.7 557 163.8 553C191 549 218 539 245.2 533C272.3 527 299.7 525 327 528C354.3 531 381.7 539 409 536C436.3 533 463.7 519 491 515C518.3 511 545.7 517 573 527C600.3 537 627.7 551 654.8 549C682 547 709 529 736.2 528C763.3 527 790.7 543 818 548C845.3 553 872.7 547 886.3 544L900 541L900 365L886.3 355C872.7 345 845.3 325 818 321C790.7 317 763.3 329 736.2 336C709 343 682 345 654.8 346C627.7 347 600.3 347 573 339C545.7 331 518.3 315 491 324C463.7 333 436.3 367 409 370C381.7 373 354.3 345 327 349C299.7 353 272.3 389 245.2 393C218 397 191 369 163.8 357C136.7 345 109.3 349 82 362C54.7 375 27.3 397 13.7 408L0 419Z" fill="#be172c"></path><path d="M0 601L13.7 601C27.3 601 54.7 601 82 601C109.3 601 136.7 601 163.8 601C191 601 218 601 245.2 601C272.3 601 299.7 601 327 601C354.3 601 381.7 601 409 601C436.3 601 463.7 601 491 601C518.3 601 545.7 601 573 601C600.3 601 627.7 601 654.8 601C682 601 709 601 736.2 601C763.3 601 790.7 601 818 601C845.3 601 872.7 601 886.3 601L900 601L900 539L886.3 542C872.7 545 845.3 551 818 546C790.7 541 763.3 525 736.2 526C709 527 682 545 654.8 547C627.7 549 600.3 535 573 525C545.7 515 518.3 509 491 513C463.7 517 436.3 531 409 534C381.7 537 354.3 529 327 526C299.7 523 272.3 525 245.2 531C218 537 191 547 163.8 551C136.7 555 109.3 553 82 554C54.7 555 27.3 559 13.7 561L0 563Z" fill="#a11328"></path></svg>